<?xml version="1.0" encoding="UTF-8" standalone="no"?>
<!-- Created with Inkscape (http://www.inkscape.org/) -->

<svg
   xmlns:dc="http://purl.org/dc/elements/1.1/"
   xmlns:cc="http://creativecommons.org/ns#"
   xmlns:rdf="http://www.w3.org/1999/02/22-rdf-syntax-ns#"
   xmlns:svg="http://www.w3.org/2000/svg"
   xmlns="http://www.w3.org/2000/svg"
   xmlns:xlink="http://www.w3.org/1999/xlink"
   version="1.1"
   width="395.84555"
   height="289.93954"
   id="svg2">
  <defs
     id="defs4">
    <linearGradient
       id="linearGradient6163">
      <stop
         id="stop6165"
         style="stop-color:#000000;stop-opacity:1"
         offset="0" />
      <stop
         id="stop6167"
         style="stop-color:#2e2e2e;stop-opacity:1"
         offset="1" />
    </linearGradient>
    <linearGradient
       id="linearGradient6147">
      <stop
         id="stop6149"
         style="stop-color:#0e640b;stop-opacity:1"
         offset="0" />
    </linearGradient>
    <linearGradient
       id="linearGradient3977">
      <stop
         id="stop3979"
         style="stop-color:#016a00;stop-opacity:1"
         offset="0" />
      <stop
         id="stop3981"
         style="stop-color:#eeff7b;stop-opacity:1"
         offset="1" />
    </linearGradient>
    <linearGradient
       x1="264.58084"
       y1="275.34171"
       x2="265.4165"
       y2="420.96652"
       id="linearGradient3975"
       xlink:href="#linearGradient3977"
       gradientUnits="userSpaceOnUse"
       spreadMethod="reflect" />
    <linearGradient
       x1="110.99744"
       y1="405.35141"
       x2="106.72832"
       y2="574.2193"
       id="linearGradient3987"
       xlink:href="#linearGradient3977"
       gradientUnits="userSpaceOnUse"
       spreadMethod="reflect" />
    <linearGradient
       x1="110.99744"
       y1="405.35141"
       x2="106.72832"
       y2="574.2193"
       id="linearGradient4183"
       xlink:href="#linearGradient3977"
       gradientUnits="userSpaceOnUse"
       spreadMethod="reflect" />
    <linearGradient
       x1="187.83224"
       y1="375.83069"
       x2="117.39517"
       y2="172.56935"
       id="linearGradient5561"
       xlink:href="#linearGradient3977"
       gradientUnits="userSpaceOnUse"
       gradientTransform="matrix(0.51236298,0.29461097,-0.29461097,0.51236298,200.82193,301.16815)" />
    <linearGradient
       x1="187.83224"
       y1="375.83069"
       x2="117.39517"
       y2="172.56935"
       id="linearGradient5571"
       xlink:href="#linearGradient3977"
       gradientUnits="userSpaceOnUse"
       gradientTransform="matrix(0.39937097,0.43613672,-0.43613672,0.39937097,352.0386,275.92073)" />
    <linearGradient
       x1="187.83224"
       y1="375.83069"
       x2="117.39517"
       y2="172.56935"
       id="linearGradient5765"
       xlink:href="#linearGradient3977"
       gradientUnits="userSpaceOnUse"
       gradientTransform="matrix(0.39937097,0.43613672,-0.43613672,0.39937097,352.0386,275.92073)" />
    <linearGradient
       x1="187.83224"
       y1="375.83069"
       x2="117.39517"
       y2="172.56935"
       id="linearGradient5767"
       xlink:href="#linearGradient3977"
       gradientUnits="userSpaceOnUse"
       gradientTransform="matrix(0.51236298,0.29461097,-0.29461097,0.51236298,200.82193,301.16815)" />
    <linearGradient
       x1="187.83224"
       y1="375.83069"
       x2="117.39517"
       y2="172.56935"
       id="linearGradient5777"
       xlink:href="#linearGradient3977"
       gradientUnits="userSpaceOnUse"
       gradientTransform="matrix(0.51236298,0.29461097,-0.29461097,0.51236298,200.82193,301.16815)" />
    <linearGradient
       x1="187.83224"
       y1="375.83069"
       x2="117.39517"
       y2="172.56935"
       id="linearGradient5780"
       xlink:href="#linearGradient3977"
       gradientUnits="userSpaceOnUse"
       gradientTransform="matrix(0.39937097,0.43613672,-0.43613672,0.39937097,352.0386,275.92073)" />
  </defs>
  <metadata
     id="metadata7">
    <rdf:RDF>
      <cc:Work
         rdf:about="">
        <dc:format>image/svg+xml</dc:format>
        <dc:type
           rdf:resource="http://purl.org/dc/dcmitype/StillImage" />
        <dc:title></dc:title>
      </cc:Work>
    </rdf:RDF>
  </metadata>
  <g
     transform="translate(-35.622896,-308.84313)"
     id="layer1">
    <g
       transform="matrix(0.99984494,-0.01760937,0.01760937,0.99984494,-1.2078252,54.729822)"
       id="g5711"
       style="opacity:0.3;fill:#000000;fill-opacity:1;stroke:none">
      <path
         d="m 55.473888,280.76309 c 8.509596,-1.96335 17.216205,-2.76368 25.898492,-3.5075 14.398771,-1.23355 11.583217,-0.95414 26.63678,-1.71062 11.1157,-0.47035 7.22182,-0.41338 21.85709,-0.30588 14.60855,0.10731 12.38715,0.13325 26.47995,0.73819 1.80267,-0.47336 8.49701,25.02031 6.69434,25.49367 l 0,0 c -4.10512,0.23487 -8.20698,0.53589 -12.31534,0.70459 -16.54512,0.67942 -33.12038,0.57007 -49.67094,0.25943 -13.012063,-0.72018 -13.554192,-0.547 -26.025466,-1.98182 -8.536526,-0.98214 -17.238555,-2.1169 -25.209081,-5.51544 -1.002297,-0.39981 4.651878,-14.57443 5.654175,-14.17462 z"
         id="path5713"
         style="fill:#000000;fill-opacity:1;stroke:none" />
      <path
         d="m 68.780607,294.44841 c 4.132172,14.39294 5.293243,29.40027 6.939952,44.22014 1.505575,15.66183 3.03607,31.32332 3.684039,47.04998 0.233196,5.65981 0.265867,10.76907 0.33905,16.39383 -0.01734,1.17691 0.136,6.60855 -0.535466,8.40767 -0.09429,0.25265 -0.51916,0.14618 -0.77874,0.21927 0.344171,1.0344 -14.284407,5.90171 -14.628577,4.86731 l 0,0 c -0.583453,-0.7322 -1.253742,-1.40293 -1.750358,-2.19659 -2.074764,-3.31578 -2.283204,-5.03177 -3.563668,-9.02983 -2.165197,-8.98029 -4.17079,-17.97807 -5.501027,-27.1296 -1.419967,-9.76885 -1.783918,-14.99584 -2.341393,-24.92085 -0.233995,-4.16594 -0.366045,-8.33698 -0.549067,-12.50547 0.01788,-8.11533 -0.08834,-14.35857 0.36731,-22.39051 0.332297,-5.85749 0.860714,-9.84894 1.593096,-15.5108 0.203917,-1.57643 0.350312,-3.16267 0.641355,-4.72536 0.173932,-0.93389 0.500492,-1.83279 0.750738,-2.74919 0,-1.08419 15.332756,-1.08419 15.332756,0 z"
         id="path5715"
         style="fill:#000000;fill-opacity:1;stroke:none" />
      <path
         d="m 65.427451,349.29298 c 1.156145,-0.381 2.288862,-0.84226 3.468434,-1.14299 4.235722,-1.07989 8.547165,-1.65074 12.883406,-2.15283 7.01978,-0.81282 11.937193,-1.20121 19.076159,-1.39437 3.39389,-0.0918 6.79019,-0.032 10.18529,-0.048 5.17392,0.0971 10.34784,0.19428 15.52176,0.29143 0.91347,0.11287 1.82288,0.26584 2.74041,0.33862 9.25504,0.58053 4.87719,0.24794 13.13616,0.96288 1.33892,-0.39669 6.94906,18.5385 5.61014,18.9352 l 0,0 c -4.32321,0.77382 -8.41719,1.60602 -12.82969,1.91601 -4.83788,0.33987 -9.69218,0.3829 -14.53634,0.61691 -1.20982,0.0584 -2.41624,0.17359 -3.62436,0.26038 -3.37431,-0.006 -6.7493,0.0498 -10.12292,-0.0187 -7.494131,-0.15199 -12.11988,-0.46917 -19.508309,-1.10013 -4.552452,-0.38878 -9.09734,-0.80177 -13.599137,-1.60549 -1.27934,-0.2284 -2.532935,-0.58287 -3.799403,-0.87431 -1.059576,0.32538 -5.661175,-14.65928 -4.6016,-14.98466 z"
         id="path5717"
         style="fill:#000000;fill-opacity:1;stroke:none" />
      <path
         d="m 172.32124,328.7936 c 0.23608,0.88744 0.517,1.76416 0.70822,2.66233 1.73164,8.1338 2.35365,16.47749 3.7583,24.66502 0.48975,2.85472 1.12015,5.68352 1.68022,8.52528 2.48122,11.63845 5.48323,23.17723 10.08701,34.17697 0.98489,2.35317 2.0106,4.69459 3.19326,6.95483 1.0052,1.92107 2.24002,3.71296 3.36003,5.56943 0.71752,1.34981 -18.37162,11.49701 -19.08913,10.14721 l 0,0 c -1.67642,-2.39649 -3.5024,-4.69501 -5.02924,-7.18945 -5.13036,-8.3816 -8.60422,-17.63373 -11.28406,-27.04828 -0.92698,-3.25656 -1.77808,-6.5381 -2.47767,-9.85097 -0.70563,-3.34151 -1.15662,-6.73176 -1.73493,-10.09765 -0.27745,-3.21855 -0.64438,-6.43065 -0.83235,-9.65567 -0.50866,-8.72698 -0.20637,-17.6209 1.61937,-26.19672 0.19122,-0.89817 0.47214,-1.77489 0.70822,-2.66233 0,-1.08419 15.33275,-1.08419 15.33275,0 z"
         id="path5719"
         style="fill:#000000;fill-opacity:1;stroke:none" />
      <path
         d="m 168.7642,354.43682 c 0.34444,-0.44714 0.65626,-0.92144 1.03333,-1.34142 0.90087,-1.00338 3.33348,-3.26323 4.18856,-4.01953 2.84754,-2.51858 4.63152,-3.96449 7.85638,-6.21351 1.87729,-1.30922 3.82005,-2.52196 5.73007,-3.78294 6.90868,-4.18043 14.36734,-7.38063 22.10425,-9.68049 2.49822,-0.74262 5.05659,-1.26547 7.58489,-1.8982 1.34067,-0.67361 10.86694,18.28643 9.52626,18.96004 l 0,0 c -2.13355,0.58291 -4.2779,1.12766 -6.40066,1.74872 -6.84733,2.00332 -13.56576,4.40399 -20.16545,7.1123 -1.96439,0.79814 -3.94011,1.56893 -5.89316,2.39441 -4.86225,2.05508 -9.59963,4.387 -14.38453,6.61003 -0.69928,0.79054 -11.87923,-9.09887 -11.17994,-9.88941 z"
         id="path5721"
         style="fill:#000000;fill-opacity:1;stroke:none" />
      <path
         d="m 234.6518,337.25586 c 0.39615,0.87846 0.8473,1.73413 1.18845,2.63537 0.57113,1.5088 1.02833,3.0583 1.54526,4.58652 1.46279,4.32453 2.88118,8.66439 4.39257,12.97218 0.87724,2.50033 1.72187,5.0145 2.71146,7.47252 0.9901,2.45927 2.14936,4.847 3.22404,7.2705 2.83185,5.30533 4.09079,8.11148 7.57651,12.94844 2.39115,3.31807 5.07339,6.2188 8.05548,8.99815 2.93949,2.73965 3.82858,3.24521 6.92838,5.47617 0.79345,0.48111 1.58691,0.96222 2.38037,1.44334 1.02932,0.72752 -9.25933,15.28435 -10.28865,14.55683 l 0,0 c -1.48265,-0.57176 -2.9653,-1.14352 -4.44794,-1.71528 -4.5766,-2.48908 -6.32437,-3.20917 -10.58574,-6.57411 -9.41547,-7.43484 -16.18305,-16.98386 -21.13508,-27.84845 -1.13735,-2.97862 -2.42647,-5.90364 -3.41205,-8.93586 -2.99987,-9.22931 -4.65523,-19.13221 -4.10316,-28.84815 0.0698,-1.22823 0.26579,-2.44601 0.39869,-3.66902 -0.0544,-1.10106 15.51702,-1.87021 15.57141,-0.76915 z"
         id="path5723"
         style="fill:#000000;fill-opacity:1;stroke:none" />
      <path
         d="m 291.2617,350.87923 c 0.01,1.29808 0.11684,2.59908 0.0293,3.89425 -0.31619,4.67929 -1.18336,8.94833 -2.25497,13.53667 -1.67108,7.15512 -3.57239,13.8999 -6.02142,20.85307 -1.4474,4.10937 -3.13353,8.13071 -4.70029,12.19607 -1.89282,4.30993 -3.78564,8.61987 -5.67847,12.92981 -0.72119,1.81506 -26.39003,-8.38418 -25.66884,-10.19924 l 0,0 c 2.10066,-3.95191 4.20132,-7.90383 6.30198,-11.85574 5.00428,-9.94577 10.05604,-19.86718 15.06962,-29.80819 2.26422,-4.48952 3.45996,-7.13079 5.8805,-11.29177 0.52982,-0.91078 1.13588,-1.77503 1.70381,-2.66254 0.17025,-1.08462 15.509,1.32299 15.33876,2.40761 z"
         id="path5725"
         style="fill:#000000;fill-opacity:1;stroke:none" />
      <path
         d="m 315.91654,339.56077 c 0.48112,0.85346 0.99847,1.68748 1.44335,2.56038 2.42648,4.76092 2.27455,5.03217 4.64484,10.48789 1.14797,2.64229 2.37109,5.25143 3.52553,7.8909 2.03224,4.64644 6.20982,14.52339 8.14245,19.0756 3.43037,7.83114 4.71602,11.09173 8.57328,18.63988 1.35924,2.65986 2.84986,5.25051 4.27479,7.87577 0.7268,1.50649 -20.57821,11.78503 -21.30501,10.27854 l 0,0 c -1.87766,-2.94567 -3.89456,-5.80707 -5.63297,-8.837 -4.49781,-7.83937 -6.07625,-12.10309 -9.69092,-20.40853 -1.23728,-3.58407 -2.59857,-7.12771 -3.71186,-10.75222 -2.31006,-7.52074 -3.18428,-11.71008 -4.35899,-19.30553 -0.52293,-3.38122 -1.05185,-8.13178 -1.13968,-11.68467 -0.0256,-1.03764 0.0775,-2.07446 0.11625,-3.11169 -0.19158,-1.06907 14.92737,-3.77839 15.11894,-2.70932 z"
         id="path5727"
         style="fill:#000000;fill-opacity:1;stroke:none" />
      <path
         d="m 378.90081,300.57184 c 0.74715,1.38931 1.61103,2.7219 2.24146,4.16793 2.25822,5.17972 3.83626,10.71451 5.25013,16.16214 2.1622,8.33091 3.9153,16.49694 5.30482,25.00595 0.79312,4.85685 1.3538,9.74882 2.0307,14.62323 1.89449,14.90404 2.84553,29.90901 3.2379,44.92238 0.11777,4.50634 0.11775,9.01499 0.17663,13.52248 0.0763,1.86075 -26.23865,2.93984 -26.31495,1.07909 l 0,0 c -1.63247,-19.0459 -3.53817,-38.07184 -4.51602,-57.16811 -0.31047,-4.76787 -0.6527,-9.53378 -0.93141,-14.30361 -0.21835,-3.73691 -1.02448,-20.25104 -1.23125,-24.60734 -0.32383,-6.82252 -0.67861,-9.88068 -0.22727,-16.3744 0.098,-1.40952 0.38655,-2.79929 0.57982,-4.19893 -0.20017,-1.01819 14.19927,-3.849 14.39944,-2.83081 z"
         id="path5729"
         style="fill:#000000;fill-opacity:1;stroke:none" />
      <path
         d="m 343.54337,342.46043 c 0.39815,-0.16877 0.78872,-0.35669 1.19445,-0.50632 0.60326,-0.22247 4.50142,-1.49656 4.78998,-1.58752 2.40076,-0.75678 7.44842,-2.28195 9.58742,-2.84752 2.33762,-0.61808 4.69767,-1.14793 7.04651,-1.72189 15.22159,-3.51764 30.75101,-5.42779 46.29994,-6.74357 5.57268,-0.13505 3.06728,-0.21897 7.51985,0.0944 1.03109,-0.467 7.63552,14.1148 6.60443,14.5818 l 0,0 c -3.80198,2.03245 -1.63406,1.01294 -6.58213,2.88599 -1.91601,0.55715 -3.81646,1.17089 -5.74803,1.67144 -13.29957,3.44645 -26.91899,5.33894 -40.58162,6.59927 -2.52292,0.14808 -5.04365,0.33978 -7.56874,0.44426 -4.57325,0.18922 -9.20657,0.21824 -13.78266,-0.0115 -0.54587,-0.0274 -1.08733,-0.11789 -1.63317,-0.14596 -0.41257,-0.0212 -0.82624,-0.001 -1.23936,-0.002 -0.89882,0.41767 -6.80568,-12.29352 -5.90687,-12.7112 z"
         id="path5731"
         style="fill:#000000;fill-opacity:1;stroke:none" />
      <path
         d="m 318.44587,301.99054 c 0.0464,0.93743 0.15704,1.87389 0.13911,2.81229 -0.17712,9.27311 -2.72049,18.3624 -6.77137,26.67698 -1.15582,2.37237 -2.58086,4.60386 -3.87129,6.9058 -0.58007,1.31652 -19.19857,-6.88695 -18.6185,-8.20348 l 0,0 c 0.99012,-1.93208 2.01939,-3.84458 2.97034,-5.79624 4.06654,-8.34582 7.3799,-17.07608 12.06394,-25.11217 0.19211,-0.99616 14.27988,1.72067 14.08777,2.71682 z"
         id="path5733"
         style="fill:#000000;fill-opacity:1;stroke:none" />
    </g>
    <g
       transform="matrix(0.99984494,-0.01760937,0.01760937,0.99984494,-9.2577788,46.009039)"
       id="g3188"
       style="fill:#ff8e00;fill-opacity:1;stroke:none">
      <path
         d="m 55.473888,280.76309 c 8.509596,-1.96335 17.216205,-2.76368 25.898492,-3.5075 14.398771,-1.23355 11.583217,-0.95414 26.63678,-1.71062 11.1157,-0.47035 7.22182,-0.41338 21.85709,-0.30588 14.60855,0.10731 12.38715,0.13325 26.47995,0.73819 1.80267,-0.47336 8.49701,25.02031 6.69434,25.49367 l 0,0 c -4.10512,0.23487 -8.20698,0.53589 -12.31534,0.70459 -16.54512,0.67942 -33.12038,0.57007 -49.67094,0.25943 -13.012063,-0.72018 -13.554192,-0.547 -26.025466,-1.98182 -8.536526,-0.98214 -17.238555,-2.1169 -25.209081,-5.51544 -1.002297,-0.39981 4.651878,-14.57443 5.654175,-14.17462 z"
         id="path3009"
         style="fill:#ff8e00;fill-opacity:1;stroke:none" />
      <path
         d="m 68.780607,294.44841 c 4.132172,14.39294 5.293243,29.40027 6.939952,44.22014 1.505575,15.66183 3.03607,31.32332 3.684039,47.04998 0.233196,5.65981 0.265867,10.76907 0.33905,16.39383 -0.01734,1.17691 0.136,6.60855 -0.535466,8.40767 -0.09429,0.25265 -0.51916,0.14618 -0.77874,0.21927 0.344171,1.0344 -14.284407,5.90171 -14.628577,4.86731 l 0,0 c -0.583453,-0.7322 -1.253742,-1.40293 -1.750358,-2.19659 -2.074764,-3.31578 -2.283204,-5.03177 -3.563668,-9.02983 -2.165197,-8.98029 -4.17079,-17.97807 -5.501027,-27.1296 -1.419967,-9.76885 -1.783918,-14.99584 -2.341393,-24.92085 -0.233995,-4.16594 -0.366045,-8.33698 -0.549067,-12.50547 0.01788,-8.11533 -0.08834,-14.35857 0.36731,-22.39051 0.332297,-5.85749 0.860714,-9.84894 1.593096,-15.5108 0.203917,-1.57643 0.350312,-3.16267 0.641355,-4.72536 0.173932,-0.93389 0.500492,-1.83279 0.750738,-2.74919 0,-1.08419 15.332756,-1.08419 15.332756,0 z"
         id="path3011"
         style="fill:#ff8e00;fill-opacity:1;stroke:none" />
      <path
         d="m 65.427451,349.29298 c 1.156145,-0.381 2.288862,-0.84226 3.468434,-1.14299 4.235722,-1.07989 8.547165,-1.65074 12.883406,-2.15283 7.01978,-0.81282 11.937193,-1.20121 19.076159,-1.39437 3.39389,-0.0918 6.79019,-0.032 10.18529,-0.048 5.17392,0.0971 10.34784,0.19428 15.52176,0.29143 0.91347,0.11287 1.82288,0.26584 2.74041,0.33862 9.25504,0.58053 4.87719,0.24794 13.13616,0.96288 1.33892,-0.39669 6.94906,18.5385 5.61014,18.9352 l 0,0 c -4.32321,0.77382 -8.41719,1.60602 -12.82969,1.91601 -4.83788,0.33987 -9.69218,0.3829 -14.53634,0.61691 -1.20982,0.0584 -2.41624,0.17359 -3.62436,0.26038 -3.37431,-0.006 -6.7493,0.0498 -10.12292,-0.0187 -7.494131,-0.15199 -12.11988,-0.46917 -19.508309,-1.10013 -4.552452,-0.38878 -9.09734,-0.80177 -13.599137,-1.60549 -1.27934,-0.2284 -2.532935,-0.58287 -3.799403,-0.87431 -1.059576,0.32538 -5.661175,-14.65928 -4.6016,-14.98466 z"
         id="path3013"
         style="fill:#ff8e00;fill-opacity:1;stroke:none" />
      <path
         d="m 172.32124,328.7936 c 0.23608,0.88744 0.517,1.76416 0.70822,2.66233 1.73164,8.1338 2.35365,16.47749 3.7583,24.66502 0.48975,2.85472 1.12015,5.68352 1.68022,8.52528 2.48122,11.63845 5.48323,23.17723 10.08701,34.17697 0.98489,2.35317 2.0106,4.69459 3.19326,6.95483 1.0052,1.92107 2.24002,3.71296 3.36003,5.56943 0.71752,1.34981 -18.37162,11.49701 -19.08913,10.14721 l 0,0 c -1.67642,-2.39649 -3.5024,-4.69501 -5.02924,-7.18945 -5.13036,-8.3816 -8.60422,-17.63373 -11.28406,-27.04828 -0.92698,-3.25656 -1.77808,-6.5381 -2.47767,-9.85097 -0.70563,-3.34151 -1.15662,-6.73176 -1.73493,-10.09765 -0.27745,-3.21855 -0.64438,-6.43065 -0.83235,-9.65567 -0.50866,-8.72698 -0.20637,-17.6209 1.61937,-26.19672 0.19122,-0.89817 0.47214,-1.77489 0.70822,-2.66233 0,-1.08419 15.33275,-1.08419 15.33275,0 z"
         id="path3015"
         style="fill:#ff8e00;fill-opacity:1;stroke:none" />
      <path
         d="m 168.7642,354.43682 c 0.34444,-0.44714 0.65626,-0.92144 1.03333,-1.34142 0.90087,-1.00338 3.33348,-3.26323 4.18856,-4.01953 2.84754,-2.51858 4.63152,-3.96449 7.85638,-6.21351 1.87729,-1.30922 3.82005,-2.52196 5.73007,-3.78294 6.90868,-4.18043 14.36734,-7.38063 22.10425,-9.68049 2.49822,-0.74262 5.05659,-1.26547 7.58489,-1.8982 1.34067,-0.67361 10.86694,18.28643 9.52626,18.96004 l 0,0 c -2.13355,0.58291 -4.2779,1.12766 -6.40066,1.74872 -6.84733,2.00332 -13.56576,4.40399 -20.16545,7.1123 -1.96439,0.79814 -3.94011,1.56893 -5.89316,2.39441 -4.86225,2.05508 -9.59963,4.387 -14.38453,6.61003 -0.69928,0.79054 -11.87923,-9.09887 -11.17994,-9.88941 z"
         id="path3017"
         style="fill:#ff8e00;fill-opacity:1;stroke:none" />
      <path
         d="m 234.6518,337.25586 c 0.39615,0.87846 0.8473,1.73413 1.18845,2.63537 0.57113,1.5088 1.02833,3.0583 1.54526,4.58652 1.46279,4.32453 2.88118,8.66439 4.39257,12.97218 0.87724,2.50033 1.72187,5.0145 2.71146,7.47252 0.9901,2.45927 2.14936,4.847 3.22404,7.2705 2.83185,5.30533 4.09079,8.11148 7.57651,12.94844 2.39115,3.31807 5.07339,6.2188 8.05548,8.99815 2.93949,2.73965 3.82858,3.24521 6.92838,5.47617 0.79345,0.48111 1.58691,0.96222 2.38037,1.44334 1.02932,0.72752 -9.25933,15.28435 -10.28865,14.55683 l 0,0 c -1.48265,-0.57176 -2.9653,-1.14352 -4.44794,-1.71528 -4.5766,-2.48908 -6.32437,-3.20917 -10.58574,-6.57411 -9.41547,-7.43484 -16.18305,-16.98386 -21.13508,-27.84845 -1.13735,-2.97862 -2.42647,-5.90364 -3.41205,-8.93586 -2.99987,-9.22931 -4.65523,-19.13221 -4.10316,-28.84815 0.0698,-1.22823 0.26579,-2.44601 0.39869,-3.66902 -0.0544,-1.10106 15.51702,-1.87021 15.57141,-0.76915 z"
         id="path3059"
         style="fill:#ff8e00;fill-opacity:1;stroke:none" />
      <path
         d="m 291.2617,350.87923 c 0.01,1.29808 0.11684,2.59908 0.0293,3.89425 -0.31619,4.67929 -1.18336,8.94833 -2.25497,13.53667 -1.67108,7.15512 -3.57239,13.8999 -6.02142,20.85307 -1.4474,4.10937 -3.13353,8.13071 -4.70029,12.19607 -1.89282,4.30993 -3.78564,8.61987 -5.67847,12.92981 -0.72119,1.81506 -26.39003,-8.38418 -25.66884,-10.19924 l 0,0 c 2.10066,-3.95191 4.20132,-7.90383 6.30198,-11.85574 5.00428,-9.94577 10.05604,-19.86718 15.06962,-29.80819 2.26422,-4.48952 3.45996,-7.13079 5.8805,-11.29177 0.52982,-0.91078 1.13588,-1.77503 1.70381,-2.66254 0.17025,-1.08462 15.509,1.32299 15.33876,2.40761 z"
         id="path3061"
         style="fill:#ff8e00;fill-opacity:1;stroke:none" />
      <path
         d="m 315.91654,339.56077 c 0.48112,0.85346 0.99847,1.68748 1.44335,2.56038 2.42648,4.76092 2.27455,5.03217 4.64484,10.48789 1.14797,2.64229 2.37109,5.25143 3.52553,7.8909 2.03224,4.64644 6.20982,14.52339 8.14245,19.0756 3.43037,7.83114 4.71602,11.09173 8.57328,18.63988 1.35924,2.65986 2.84986,5.25051 4.27479,7.87577 0.7268,1.50649 -20.57821,11.78503 -21.30501,10.27854 l 0,0 c -1.87766,-2.94567 -3.89456,-5.80707 -5.63297,-8.837 -4.49781,-7.83937 -6.07625,-12.10309 -9.69092,-20.40853 -1.23728,-3.58407 -2.59857,-7.12771 -3.71186,-10.75222 -2.31006,-7.52074 -3.18428,-11.71008 -4.35899,-19.30553 -0.52293,-3.38122 -1.05185,-8.13178 -1.13968,-11.68467 -0.0256,-1.03764 0.0775,-2.07446 0.11625,-3.11169 -0.19158,-1.06907 14.92737,-3.77839 15.11894,-2.70932 z"
         id="path3063"
         style="fill:#ff8e00;fill-opacity:1;stroke:none" />
      <path
         d="m 378.90081,300.57184 c 0.74715,1.38931 1.61103,2.7219 2.24146,4.16793 2.25822,5.17972 3.83626,10.71451 5.25013,16.16214 2.1622,8.33091 3.9153,16.49694 5.30482,25.00595 0.79312,4.85685 1.3538,9.74882 2.0307,14.62323 1.89449,14.90404 2.84553,29.90901 3.2379,44.92238 0.11777,4.50634 0.11775,9.01499 0.17663,13.52248 0.0763,1.86075 -26.23865,2.93984 -26.31495,1.07909 l 0,0 c -1.63247,-19.0459 -3.53817,-38.07184 -4.51602,-57.16811 -0.31047,-4.76787 -0.6527,-9.53378 -0.93141,-14.30361 -0.21835,-3.73691 -1.02448,-20.25104 -1.23125,-24.60734 -0.32383,-6.82252 -0.67861,-9.88068 -0.22727,-16.3744 0.098,-1.40952 0.38655,-2.79929 0.57982,-4.19893 -0.20017,-1.01819 14.19927,-3.849 14.39944,-2.83081 z"
         id="path3113"
         style="fill:#ff8e00;fill-opacity:1;stroke:none" />
      <path
         d="m 343.54337,342.46043 c 0.39815,-0.16877 0.78872,-0.35669 1.19445,-0.50632 0.60326,-0.22247 4.50142,-1.49656 4.78998,-1.58752 2.40076,-0.75678 7.44842,-2.28195 9.58742,-2.84752 2.33762,-0.61808 4.69767,-1.14793 7.04651,-1.72189 15.22159,-3.51764 30.75101,-5.42779 46.29994,-6.74357 5.57268,-0.13505 3.06728,-0.21897 7.51985,0.0944 1.03109,-0.467 7.63552,14.1148 6.60443,14.5818 l 0,0 c -3.80198,2.03245 -1.63406,1.01294 -6.58213,2.88599 -1.91601,0.55715 -3.81646,1.17089 -5.74803,1.67144 -13.29957,3.44645 -26.91899,5.33894 -40.58162,6.59927 -2.52292,0.14808 -5.04365,0.33978 -7.56874,0.44426 -4.57325,0.18922 -9.20657,0.21824 -13.78266,-0.0115 -0.54587,-0.0274 -1.08733,-0.11789 -1.63317,-0.14596 -0.41257,-0.0212 -0.82624,-0.001 -1.23936,-0.002 -0.89882,0.41767 -6.80568,-12.29352 -5.90687,-12.7112 z"
         id="path3123"
         style="fill:#ff8e00;fill-opacity:1;stroke:none" />
      <path
         d="m 318.44587,301.99054 c 0.0464,0.93743 0.15704,1.87389 0.13911,2.81229 -0.17712,9.27311 -2.72049,18.3624 -6.77137,26.67698 -1.15582,2.37237 -2.58086,4.60386 -3.87129,6.9058 -0.58007,1.31652 -19.19857,-6.88695 -18.6185,-8.20348 l 0,0 c 0.99012,-1.93208 2.01939,-3.84458 2.97034,-5.79624 4.06654,-8.34582 7.3799,-17.07608 12.06394,-25.11217 0.19211,-0.99616 14.27988,1.72067 14.08777,2.71682 z"
         id="path3129"
         style="fill:#ff8e00;fill-opacity:1;stroke:none" />
    </g>
    <g
       transform="translate(8.0499536,8.720783)"
       id="g5761"
       style="opacity:0.3;fill:#000000;fill-opacity:1">
      <path
         d="m 361.8751,434.23586 c -5.62187,-6.13944 -11.77375,-11.37082 -18.23713,-15.67457 l -75.71709,96.82236 c 0.77666,0.91016 1.5627,1.81602 2.37914,2.70764 29.59251,32.31676 74.09709,39.74627 99.38496,16.59014 25.28786,-23.15613 21.78263,-68.12881 -7.80988,-100.44557 z"
         id="path5735"
         style="fill:#000000;fill-opacity:1;stroke:none" />
      <path
         d="m 233.83868,441.77483 c -31.8022,-9.14183 -63.71115,-0.39247 -77.54796,23.67136 -16.6107,28.88795 -1.06202,69.18823 34.71716,91.46268 l 42.8308,-115.13404 z"
         id="path5737"
         style="fill:#000000;fill-opacity:1;stroke:none" />
    </g>
    <g
       id="g5794">
      <path
         d="m 355.8751,426.23586 c -5.62187,-6.13944 -11.77375,-11.37082 -18.23713,-15.67457 l -75.71709,96.82236 c 0.77666,0.91016 1.5627,1.81602 2.37914,2.70764 29.59251,32.31676 74.09709,39.74627 99.38496,16.59014 25.28786,-23.15613 21.78263,-68.12881 -7.80988,-100.44557 z"
         id="path5469"
         style="fill:url(#linearGradient5780);fill-opacity:1;stroke:none" />
      <path
         d="m 227.83868,433.77483 c -31.8022,-9.14183 -63.71115,-0.39247 -77.54796,23.67136 -16.6107,28.88795 -1.06202,69.18823 34.71716,91.46268 l 42.8308,-115.13404 z"
         id="path5547"
         style="fill:url(#linearGradient5777);fill-opacity:1;stroke:none" />
    </g>
    <g
       transform="matrix(0.81850082,0.57450536,-0.57450536,0.81850082,342.48893,-100.15758)"
       id="g5739"
       style="opacity:0.3;fill:#000000;fill-opacity:1">
      <path
         d="m 246.40625,447.71875 c -1.30482,0.0912 -10.05724,11.17247 -9.25,11.8125 3.75193,5.23991 2.16857,3.22379 7.4375,9.3125 2.40632,2.78071 4.73756,5.59604 7.25,8.28125 5.02171,5.36695 8.25269,8.50046 11.8125,11.875 -0.85679,1.0918 -1.70249,2.19168 -2.5625,3.28125 -1.01596,1.28718 -7.63883,9.59901 -9,11.5 -0.81564,1.13912 -1.50022,2.34774 -2.25,3.53125 -0.9336,0.48995 6.00391,13.7087 6.9375,13.21875 1.21849,-0.58239 2.45236,-1.08011 3.625,-1.75 3.72104,-2.12568 7.3487,-4.76326 10.6875,-7.46875 -0.28515,-18.07207 -1.67175,-35.9965 -4.5,-53.125 -5.17535,-3.18472 -10.50323,-6.14035 -15.9375,-8.71875 -1.35499,-0.6429 -2.76987,-1.14667 -4.15625,-1.71875 -0.026,-0.0206 -0.0517,-0.0342 -0.0937,-0.0312 z m -76.25,72.78125 c -5.66857,0.14535 -11.15726,2.12737 -16.21875,4.5625 -2.16105,1.0397 -4.32874,2.15567 -6.375,3.40625 -2.25284,1.37684 -4.35465,2.9743 -6.53125,4.46875 -2.10014,1.79753 -4.28598,3.49298 -6.28125,5.40625 -5.89682,5.65467 -10.14571,11.21791 -14.46875,18.40625 -1.6738,2.78319 -2.90677,5.82069 -4.09375,8.84375 -3.40164,8.66358 -3.24675,10.56381 -4.90625,19.875 -0.11258,3.6649 -0.51367,7.3373 -0.34375,11 0.54965,11.84809 3.83667,23.68484 9.46875,34.125 5.03093,9.32581 7.54033,11.22348 14.53125,19.0625 3.07693,2.44022 5.9626,5.19545 9.25,7.34375 10.12896,6.61923 22.07174,10.23918 34.09375,11.03125 11.14846,0.73452 15.6748,-0.5407 26.8125,-2.125 12.68984,-3.68408 16.97759,-4.19229 28.78125,-10.6875 4.97545,-2.73784 9.54779,-6.19122 14.3125,-9.28125 1.82303,-0.8206 -9.77072,-26.60186 -11.59375,-25.78125 -3.47472,2.9329 -6.71955,6.19478 -10.4375,8.8125 -7.89149,5.55619 -13.92574,7.62774 -22.65625,11.375 -3.61056,1.02659 -7.16743,2.33559 -10.84375,3.09375 -8.26977,1.70542 -18.91747,2.02853 -27,-0.90625 -6.0389,-2.19275 -8.65726,-5.01981 -13.59375,-9 -1.96485,-2.19997 -4.13938,-4.23183 -5.90625,-6.59375 -5.01093,-6.69855 -9.62283,-16.65582 -11.5,-24.8125 -1.61496,-7.01729 -1.14848,-9.64026 -1.03125,-16.71875 0.40437,-2.57641 0.59548,-5.18637 1.21875,-7.71875 1.75507,-7.13092 2.81626,-7.32266 5.625,-13.9375 0.25784,-0.60723 0.12419,-1.34371 0.46875,-1.90625 2.93949,-4.79963 5.01376,-6.50325 8.875,-10.5 1.64741,-1.45824 3.24436,-2.97012 4.9375,-4.375 4.25721,-3.53243 5.13517,-3.9277 9.5,-7 1.21021,-0.85183 2.42779,-1.72375 3.625,-2.59375 0.79487,-0.57761 1.55285,-1.21194 2.375,-1.75 0.58813,-0.38493 1.22694,-0.66294 1.84375,-1 0.99878,-0.13677 -0.93871,-14.26176 -1.9375,-14.125 z m 88.3125,14.875 c -1.78262,0.0449 -12.74654,6.26378 -12.28125,7.09375 1.05176,3.718 1.22173,4.63979 2.8125,8.625 1.3363,3.34774 5.46968,12.42227 6.75,15.21875 3.01566,6.5869 6.06861,13.13619 9.09375,19.71875 0.62622,1.59489 0.96142,2.46584 1.46875,3.75 -0.83294,-0.21465 -1.66962,-0.40404 -2.5,-0.625 -3.19449,-0.85005 -6.39923,-1.72777 -9.5625,-2.6875 -3.21455,-0.9753 -6.36664,-2.09012 -9.5625,-3.125 -8.30915,-3.26922 -8.82996,-3.32889 -16.65625,-6.96875 -2.17587,-1.01197 -4.31152,-2.10512 -6.46875,-3.15625 -1.53561,-0.74822 -3.10401,-1.44126 -4.625,-2.21875 -0.87501,-0.44729 -1.68685,-0.99147 -2.5625,-1.4375 -0.40081,-0.20416 -0.83414,-0.35984 -1.25,-0.53125 -0.58499,-0.80208 -11.92874,7.47918 -11.34375,8.28125 0.44661,0.83444 0.83161,1.70409 1.34375,2.5 5.20946,8.09602 13.08796,14.37255 21.28125,19.21875 3.14429,1.85981 6.48317,3.39777 9.71875,5.09375 3.60091,1.45001 7.10705,3.091 10.78125,4.34375 6.09126,2.07685 12.19953,3.50947 18.5,4.5 3.05386,-20.188 5.61212,-42.12424 6.875,-64.5625 -0.52789,-0.68897 -1.01646,-1.31852 -1.59375,-2.0625 -3.00052,-3.86685 -6.06975,-7.88277 -9.96875,-10.90625 -0.031,-0.0553 -0.13116,-0.0655 -0.25,-0.0625 z"
         id="path5741"
         style="fill:#000000;fill-opacity:1;stroke:none" />
      <path
         d="m 305.46875,431.90625 c -0.20563,0.025 -0.33555,0.0842 -0.375,0.1875 -2.29615,3.14526 -4.54017,6.32085 -6.875,9.4375 -12.19644,16.28038 -3.32372,3.88702 -10.875,14.5625 -0.32332,0.42601 -0.64514,0.85551 -0.96875,1.28125 -0.52904,-0.37827 -1.063,-0.74934 -1.59375,-1.125 -3.94688,-2.79358 -8.01743,-5.49639 -12.1875,-8.0625 2.82825,17.1285 4.21485,35.05293 4.5,53.125 0.34486,-0.27945 0.69256,-0.56329 1.03125,-0.84375 2.55428,-2.11512 4.85706,-4.19782 7.125,-6.3125 1.87882,1.89484 3.74049,3.7984 5.625,5.6875 9.64699,10.00682 12.51466,12.72015 21.5,23 4.77018,5.4574 10.14847,11.70363 14,17.96875 1.32003,2.14722 2.27156,4.49932 3.40625,6.75 0.67457,1.41802 20.70583,-8.1445 20.03125,-9.5625 -2.83406,-9.86053 -3.04245,-12.40681 -8.15625,-21.90625 -7.84478,-14.57252 -18.79828,-27.02481 -30.5625,-38.53125 -1.88844,-1.63723 -3.7533,-3.31154 -5.625,-4.96875 6.75171,-8.30582 9.52115,-11.5587 16.25,-21.3125 2.32392,-3.36864 4.49848,-6.83257 6.75,-10.25 0.59173,-1.54872 -19.91556,-9.49947 -23,-9.125 z m -29.1875,106.5 c -1.26288,22.43826 -3.82114,44.3745 -6.875,64.5625 0.97164,0.15276 1.95581,0.30537 2.9375,0.4375 3.06252,0.41219 5.93268,0.6847 8.8125,0.8125 0.17355,0.53207 0.35559,1.06239 0.53125,1.59375 0.23046,0.58495 3.48763,-0.29482 7.4375,-1.6875 0.53736,-0.033 1.07706,-0.0487 1.625,-0.0937 2.55938,-0.21046 5.08482,-0.74786 7.625,-1.125 l 6.78125,-1.59375 c 1.34854,-0.0985 -0.0577,-19.161 -1.40625,-19.0625 l -3.875,0.75 c -2.43465,-7.90961 -3.8137,-10.27697 -7.90625,-19.5 -1.89989,-3.47507 -3.69814,-7.03119 -5.71875,-10.4375 -3.50687,-5.91183 -6.19778,-9.73459 -9.96875,-14.65625 z"
         id="path5743"
         style="fill:#000000;fill-opacity:1;stroke:none" />
    </g>
    <g
       transform="matrix(0.81850082,0.57450536,-0.57450536,0.81850082,334.43898,-108.87836)"
       id="g4264"
       style="fill:#2e2e2e;fill-opacity:1">
      <path
         d="m 246.40625,447.71875 c -1.30482,0.0912 -10.05724,11.17247 -9.25,11.8125 3.75193,5.23991 2.16857,3.22379 7.4375,9.3125 2.40632,2.78071 4.73756,5.59604 7.25,8.28125 5.02171,5.36695 8.25269,8.50046 11.8125,11.875 -0.85679,1.0918 -1.70249,2.19168 -2.5625,3.28125 -1.01596,1.28718 -7.63883,9.59901 -9,11.5 -0.81564,1.13912 -1.50022,2.34774 -2.25,3.53125 -0.9336,0.48995 6.00391,13.7087 6.9375,13.21875 1.21849,-0.58239 2.45236,-1.08011 3.625,-1.75 3.72104,-2.12568 7.3487,-4.76326 10.6875,-7.46875 -0.28515,-18.07207 -1.67175,-35.9965 -4.5,-53.125 -5.17535,-3.18472 -10.50323,-6.14035 -15.9375,-8.71875 -1.35499,-0.6429 -2.76987,-1.14667 -4.15625,-1.71875 -0.026,-0.0206 -0.0517,-0.0342 -0.0937,-0.0312 z m -76.25,72.78125 c -5.66857,0.14535 -11.15726,2.12737 -16.21875,4.5625 -2.16105,1.0397 -4.32874,2.15567 -6.375,3.40625 -2.25284,1.37684 -4.35465,2.9743 -6.53125,4.46875 -2.10014,1.79753 -4.28598,3.49298 -6.28125,5.40625 -5.89682,5.65467 -10.14571,11.21791 -14.46875,18.40625 -1.6738,2.78319 -2.90677,5.82069 -4.09375,8.84375 -3.40164,8.66358 -3.24675,10.56381 -4.90625,19.875 -0.11258,3.6649 -0.51367,7.3373 -0.34375,11 0.54965,11.84809 3.83667,23.68484 9.46875,34.125 5.03093,9.32581 7.54033,11.22348 14.53125,19.0625 3.07693,2.44022 5.9626,5.19545 9.25,7.34375 10.12896,6.61923 22.07174,10.23918 34.09375,11.03125 11.14846,0.73452 15.6748,-0.5407 26.8125,-2.125 12.68984,-3.68408 16.97759,-4.19229 28.78125,-10.6875 4.97545,-2.73784 9.54779,-6.19122 14.3125,-9.28125 1.82303,-0.8206 -9.77072,-26.60186 -11.59375,-25.78125 -3.47472,2.9329 -6.71955,6.19478 -10.4375,8.8125 -7.89149,5.55619 -13.92574,7.62774 -22.65625,11.375 -3.61056,1.02659 -7.16743,2.33559 -10.84375,3.09375 -8.26977,1.70542 -18.91747,2.02853 -27,-0.90625 -6.0389,-2.19275 -8.65726,-5.01981 -13.59375,-9 -1.96485,-2.19997 -4.13938,-4.23183 -5.90625,-6.59375 -5.01093,-6.69855 -9.62283,-16.65582 -11.5,-24.8125 -1.61496,-7.01729 -1.14848,-9.64026 -1.03125,-16.71875 0.40437,-2.57641 0.59548,-5.18637 1.21875,-7.71875 1.75507,-7.13092 2.81626,-7.32266 5.625,-13.9375 0.25784,-0.60723 0.12419,-1.34371 0.46875,-1.90625 2.93949,-4.79963 5.01376,-6.50325 8.875,-10.5 1.64741,-1.45824 3.24436,-2.97012 4.9375,-4.375 4.25721,-3.53243 5.13517,-3.9277 9.5,-7 1.21021,-0.85183 2.42779,-1.72375 3.625,-2.59375 0.79487,-0.57761 1.55285,-1.21194 2.375,-1.75 0.58813,-0.38493 1.22694,-0.66294 1.84375,-1 0.99878,-0.13677 -0.93871,-14.26176 -1.9375,-14.125 z m 88.3125,14.875 c -1.78262,0.0449 -12.74654,6.26378 -12.28125,7.09375 1.05176,3.718 1.22173,4.63979 2.8125,8.625 1.3363,3.34774 5.46968,12.42227 6.75,15.21875 3.01566,6.5869 6.06861,13.13619 9.09375,19.71875 0.62622,1.59489 0.96142,2.46584 1.46875,3.75 -0.83294,-0.21465 -1.66962,-0.40404 -2.5,-0.625 -3.19449,-0.85005 -6.39923,-1.72777 -9.5625,-2.6875 -3.21455,-0.9753 -6.36664,-2.09012 -9.5625,-3.125 -8.30915,-3.26922 -8.82996,-3.32889 -16.65625,-6.96875 -2.17587,-1.01197 -4.31152,-2.10512 -6.46875,-3.15625 -1.53561,-0.74822 -3.10401,-1.44126 -4.625,-2.21875 -0.87501,-0.44729 -1.68685,-0.99147 -2.5625,-1.4375 -0.40081,-0.20416 -0.83414,-0.35984 -1.25,-0.53125 -0.58499,-0.80208 -11.92874,7.47918 -11.34375,8.28125 0.44661,0.83444 0.83161,1.70409 1.34375,2.5 5.20946,8.09602 13.08796,14.37255 21.28125,19.21875 3.14429,1.85981 6.48317,3.39777 9.71875,5.09375 3.60091,1.45001 7.10705,3.091 10.78125,4.34375 6.09126,2.07685 12.19953,3.50947 18.5,4.5 3.05386,-20.188 5.61212,-42.12424 6.875,-64.5625 -0.52789,-0.68897 -1.01646,-1.31852 -1.59375,-2.0625 -3.00052,-3.86685 -6.06975,-7.88277 -9.96875,-10.90625 -0.031,-0.0553 -0.13116,-0.0655 -0.25,-0.0625 z"
         id="path3179"
         style="fill:#2e2e2e;fill-opacity:1;stroke:none" />
      <path
         d="m 305.46875,431.90625 c -0.20563,0.025 -0.33555,0.0842 -0.375,0.1875 -2.29615,3.14526 -4.54017,6.32085 -6.875,9.4375 -12.19644,16.28038 -3.32372,3.88702 -10.875,14.5625 -0.32332,0.42601 -0.64514,0.85551 -0.96875,1.28125 -0.52904,-0.37827 -1.063,-0.74934 -1.59375,-1.125 -3.94688,-2.79358 -8.01743,-5.49639 -12.1875,-8.0625 2.82825,17.1285 4.21485,35.05293 4.5,53.125 0.34486,-0.27945 0.69256,-0.56329 1.03125,-0.84375 2.55428,-2.11512 4.85706,-4.19782 7.125,-6.3125 1.87882,1.89484 3.74049,3.7984 5.625,5.6875 9.64699,10.00682 12.51466,12.72015 21.5,23 4.77018,5.4574 10.14847,11.70363 14,17.96875 1.32003,2.14722 2.27156,4.49932 3.40625,6.75 0.67457,1.41802 20.70583,-8.1445 20.03125,-9.5625 -2.83406,-9.86053 -3.04245,-12.40681 -8.15625,-21.90625 -7.84478,-14.57252 -18.79828,-27.02481 -30.5625,-38.53125 -1.88844,-1.63723 -3.7533,-3.31154 -5.625,-4.96875 6.75171,-8.30582 9.52115,-11.5587 16.25,-21.3125 2.32392,-3.36864 4.49848,-6.83257 6.75,-10.25 0.59173,-1.54872 -19.91556,-9.49947 -23,-9.125 z m -29.1875,106.5 c -1.26288,22.43826 -3.82114,44.3745 -6.875,64.5625 0.97164,0.15276 1.95581,0.30537 2.9375,0.4375 3.06252,0.41219 5.93268,0.6847 8.8125,0.8125 0.17355,0.53207 0.35559,1.06239 0.53125,1.59375 0.23046,0.58495 3.48763,-0.29482 7.4375,-1.6875 0.53736,-0.033 1.07706,-0.0487 1.625,-0.0937 2.55938,-0.21046 5.08482,-0.74786 7.625,-1.125 l 6.78125,-1.59375 c 1.34854,-0.0985 -0.0577,-19.161 -1.40625,-19.0625 l -3.875,0.75 c -2.43465,-7.90961 -3.8137,-10.27697 -7.90625,-19.5 -1.89989,-3.47507 -3.69814,-7.03119 -5.71875,-10.4375 -3.50687,-5.91183 -6.19778,-9.73459 -9.96875,-14.65625 z"
         id="path4246"
         style="fill:#2e2e2e;fill-opacity:1;stroke:none" />
    </g>
    <g
       id="g4105">
      <path
         d="m 189.50205,552.39932 c -38.89654,18.02523 -40.44008,28.08817 -36.76198,31.54415 6.24399,5.86693 7.11522,-10.43566 36.76198,-31.54415 z"
         id="path5455"
         style="fill:#d20000;fill-opacity:1;stroke:none" />
      <path
         d="m 209.24504,541.6451 c -21.34567,29.40958 -24.90328,40.79394 -23.71741,50.2809 1.18587,9.48696 7.82675,4.98065 9.48697,-1.18587 1.66021,-6.16653 3.55761,-33.91589 14.23044,-49.09503 z"
         id="path5457"
         style="fill:#d20000;fill-opacity:1;stroke:none" />
      <path
         d="m 172.6627,577.53977 c -5.45501,8.1825 -14.05917,12.36817 -11.53259,19.47792 0.4973,1.3994 2.83683,2.17487 4.18019,1.54163 6.71421,-3.16499 5.33642,-13.78574 7.3524,-21.01955 z"
         id="path5459"
         style="fill:#d20000;fill-opacity:1;stroke:none" />
      <path
         d="m 182.38683,565.91824 c -6.4037,7.3524 -6.4037,9.01262 -6.16652,10.67284 0.23717,1.66021 1.42304,1.66021 2.13456,1.18587 0.71152,-0.47435 1.66022,-5.21783 4.03196,-11.85871 z"
         id="path5463"
         style="fill:#d20000;fill-opacity:1;stroke:none" />
    </g>
  </g>
</svg>
