<?xml version="1.0" encoding="UTF-8" standalone="no"?>
<!-- Created with Inkscape (http://www.inkscape.org/) -->

<svg
   xmlns:dc="http://purl.org/dc/elements/1.1/"
   xmlns:cc="http://creativecommons.org/ns#"
   xmlns:rdf="http://www.w3.org/1999/02/22-rdf-syntax-ns#"
   xmlns:svg="http://www.w3.org/2000/svg"
   xmlns="http://www.w3.org/2000/svg"
   xmlns:xlink="http://www.w3.org/1999/xlink"
   xmlns:sodipodi="http://sodipodi.sourceforge.net/DTD/sodipodi-0.dtd"
   xmlns:inkscape="http://www.inkscape.org/namespaces/inkscape"
   width="744.09448819"
   height="1052.3622047"
   id="svg2"
   version="1.1"
   inkscape:version="0.48.0 r9654"
   sodipodi:docname="logo_calligraphy.svg">
  <defs
     id="defs4">
    <linearGradient
       inkscape:collect="always"
       id="linearGradient3291">
      <stop
         style="stop-color:#aaaaaa;stop-opacity:1;"
         offset="0"
         id="stop3293" />
      <stop
         style="stop-color:#aaaaaa;stop-opacity:0;"
         offset="1"
         id="stop3295" />
    </linearGradient>
    <linearGradient
       inkscape:collect="always"
       id="linearGradient3283">
      <stop
         style="stop-color:#aaaaaa;stop-opacity:1;"
         offset="0"
         id="stop3285" />
      <stop
         style="stop-color:#aaaaaa;stop-opacity:0;"
         offset="1"
         id="stop3287" />
    </linearGradient>
    <linearGradient
       inkscape:collect="always"
       id="linearGradient3275">
      <stop
         style="stop-color:#aaaaaa;stop-opacity:1;"
         offset="0"
         id="stop3277" />
      <stop
         style="stop-color:#aaaaaa;stop-opacity:0;"
         offset="1"
         id="stop3279" />
    </linearGradient>
    <linearGradient
       inkscape:collect="always"
       id="linearGradient3267">
      <stop
         style="stop-color:#aaaaaa;stop-opacity:1;"
         offset="0"
         id="stop3269" />
      <stop
         style="stop-color:#aaaaaa;stop-opacity:0;"
         offset="1"
         id="stop3271" />
    </linearGradient>
    <linearGradient
       inkscape:collect="always"
       id="linearGradient3259">
      <stop
         style="stop-color:#aaaaaa;stop-opacity:1;"
         offset="0"
         id="stop3261" />
      <stop
         style="stop-color:#aaaaaa;stop-opacity:0;"
         offset="1"
         id="stop3263" />
    </linearGradient>
    <linearGradient
       inkscape:collect="always"
       id="linearGradient3251">
      <stop
         style="stop-color:#aaaaaa;stop-opacity:1;"
         offset="0"
         id="stop3253" />
      <stop
         style="stop-color:#aaaaaa;stop-opacity:0;"
         offset="1"
         id="stop3255" />
    </linearGradient>
    <linearGradient
       inkscape:collect="always"
       id="linearGradient3243">
      <stop
         style="stop-color:#aaaaaa;stop-opacity:1;"
         offset="0"
         id="stop3245" />
      <stop
         style="stop-color:#aaaaaa;stop-opacity:0;"
         offset="1"
         id="stop3247" />
    </linearGradient>
    <linearGradient
       inkscape:collect="always"
       id="linearGradient3235">
      <stop
         style="stop-color:#aaaaaa;stop-opacity:1;"
         offset="0"
         id="stop3237" />
      <stop
         style="stop-color:#aaaaaa;stop-opacity:0;"
         offset="1"
         id="stop3239" />
    </linearGradient>
    <linearGradient
       inkscape:collect="always"
       id="linearGradient3227">
      <stop
         style="stop-color:#aaaaaa;stop-opacity:1;"
         offset="0"
         id="stop3229" />
      <stop
         style="stop-color:#aaaaaa;stop-opacity:0;"
         offset="1"
         id="stop3231" />
    </linearGradient>
    <linearGradient
       inkscape:collect="always"
       xlink:href="#linearGradient3227"
       id="linearGradient3233"
       x1="74.285713"
       y1="58.076466"
       x2="123.21429"
       y2="119.32647"
       gradientUnits="userSpaceOnUse" />
    <linearGradient
       inkscape:collect="always"
       xlink:href="#linearGradient3235"
       id="linearGradient3241"
       x1="101.42857"
       y1="88.612183"
       x2="123.92857"
       y2="114.50504"
       gradientUnits="userSpaceOnUse" />
    <linearGradient
       inkscape:collect="always"
       xlink:href="#linearGradient3243"
       id="linearGradient3249"
       x1="131.60715"
       y1="88.433609"
       x2="147.14285"
       y2="107.71932"
       gradientUnits="userSpaceOnUse" />
    <linearGradient
       inkscape:collect="always"
       xlink:href="#linearGradient3251"
       id="linearGradient3257"
       x1="160.53572"
       y1="89.326469"
       x2="165.71428"
       y2="106.82647"
       gradientUnits="userSpaceOnUse" />
    <linearGradient
       inkscape:collect="always"
       xlink:href="#linearGradient3259"
       id="linearGradient3265"
       x1="159.46428"
       y1="63.076466"
       x2="179.46428"
       y2="102.54075"
       gradientUnits="userSpaceOnUse" />
    <linearGradient
       inkscape:collect="always"
       xlink:href="#linearGradient3267"
       id="linearGradient3273"
       x1="167.67857"
       y1="60.040752"
       x2="186.60715"
       y2="101.11218"
       gradientUnits="userSpaceOnUse" />
    <linearGradient
       inkscape:collect="always"
       xlink:href="#linearGradient3275"
       id="linearGradient3281"
       x1="189.28572"
       y1="82.540749"
       x2="204.82143"
       y2="98.076469"
       gradientUnits="userSpaceOnUse" />
    <linearGradient
       inkscape:collect="always"
       xlink:href="#linearGradient3283"
       id="linearGradient3289"
       x1="206.60715"
       y1="81.290749"
       x2="223.75"
       y2="94.326469"
       gradientUnits="userSpaceOnUse" />
    <linearGradient
       inkscape:collect="always"
       xlink:href="#linearGradient3291"
       id="linearGradient3297"
       x1="222.85715"
       y1="60.576466"
       x2="240.89285"
       y2="88.790749"
       gradientUnits="userSpaceOnUse" />
  </defs>
  <sodipodi:namedview
     id="base"
     pagecolor="#ffffff"
     bordercolor="#666666"
     borderopacity="1.0"
     inkscape:pageopacity="0.0"
     inkscape:pageshadow="2"
     inkscape:zoom="4"
     inkscape:cx="166.37416"
     inkscape:cy="975.76662"
     inkscape:document-units="px"
     inkscape:current-layer="layer1"
     showgrid="false"
     inkscape:window-width="1918"
     inkscape:window-height="1078"
     inkscape:window-x="0"
     inkscape:window-y="0"
     inkscape:window-maximized="0" />
  <metadata
     id="metadata7">
    <rdf:RDF>
      <cc:Work
         rdf:about="">
        <dc:format>image/svg+xml</dc:format>
        <dc:type
           rdf:resource="http://purl.org/dc/dcmitype/StillImage" />
      </cc:Work>
    </rdf:RDF>
  </metadata>
  <g
     inkscape:label="Layer 1"
     inkscape:groupmode="layer"
     id="layer1">
    <path
       style="fill:url(#linearGradient3233);fill-opacity:1;fill-rule:nonzero;stroke:#000000;stroke-width:0.30000000999999998;stroke-miterlimit:4;stroke-opacity:1;stroke-dasharray:none"
       d="M 128.46875 53.90625 C 127.94283 54.073825 127.45727 54.317311 126.9375 54.5 C 125.92595 54.898549 124.86623 55.192119 123.84375 55.5625 C 122.48011 56.004244 121.16273 56.564935 119.75 56.84375 C 117.08785 57.485636 114.383 58.078816 111.6875 58.5625 C 108.48326 59.138596 105.29889 59.696089 102.0625 60.0625 C 99.503732 60.423959 96.953044 60.810925 94.40625 61.25 C 93.634209 61.4023 92.836294 61.512653 92.0625 61.65625 C 91.477911 60.007915 90.77687 58.412905 90 56.84375 L 85.40625 59.46875 C 86.015788 60.555348 86.517817 61.6866 86.96875 62.84375 C 85.629139 63.190006 84.279789 63.538138 82.9375 63.875 C 80.877504 64.481214 78.833673 65.148778 76.8125 65.875 L 72.6875 69.15625 C 74.689276 68.329684 76.738674 67.650359 78.8125 67.03125 C 80.652203 66.529525 82.530247 66.1075 84.375 65.625 C 85.473594 65.32583 86.571435 65.095345 87.6875 64.875 C 88.125242 66.431502 88.427623 68.018034 88.59375 69.625 C 88.744835 71.461113 88.7473 73.315239 88.75 75.15625 C 88.73213 76.957467 88.78305 78.76324 88.6875 80.5625 C 88.559075 82.387908 88.51081 84.202345 88.46875 86.03125 C 87.820818 86.337332 87.183661 86.640425 86.53125 86.9375 C 82.550537 88.665456 78.570826 90.441456 74.40625 91.6875 L 70.1875 94.90625 C 74.47472 93.619648 78.59153 91.78601 82.6875 90 C 84.627356 89.119631 86.532288 88.200265 88.4375 87.25 C 88.28113 89.758793 88.183458 92.268353 88.125 94.78125 C 88.06467 98.145852 88.11124 101.51093 88.03125 104.875 C 87.953358 108.28905 87.60769 111.7022 87 115.0625 C 86.634352 116.61273 86.269745 118.18865 85.5625 119.625 C 84.970047 120.56237 84.196764 121.36038 83.5 122.21875 C 83.235855 122.59175 82.975183 122.97757 82.75 123.375 L 87.625 121.21875 C 87.864309 120.85065 88.098204 120.49788 88.375 120.15625 C 89.085989 119.28472 89.879585 118.46025 90.375 117.4375 C 90.990965 115.94919 91.354569 114.35949 91.65625 112.78125 C 92.169667 109.39867 92.51595 105.98426 92.59375 102.5625 C 92.673899 99.1883 92.62913 95.811672 92.71875 92.4375 C 92.787384 89.910512 92.930129 87.399239 93.0625 84.875 C 95.77634 83.452032 98.495283 81.993783 101.1875 80.53125 L 105.0625 77.40625 C 101.10898 79.575595 97.116259 81.711289 93.09375 83.75 C 93.145551 81.89861 93.240744 80.035199 93.375 78.1875 C 93.45117 76.379049 93.39795 74.559728 93.40625 72.75 C 93.390915 70.8912 93.402448 69.041316 93.25 67.1875 C 93.126394 66.102548 92.925235 65.033253 92.6875 63.96875 C 94.42613 63.681209 96.162102 63.408664 97.90625 63.15625 C 101.15478 62.75797 104.40465 62.204146 107.625 61.625 C 110.29962 61.160317 112.94614 60.598076 115.59375 60 C 116.99471 59.730781 118.34377 59.278893 119.6875 58.8125 C 120.71574 58.472315 121.7245 58.098172 122.75 57.75 C 123.26702 57.576257 123.77272 57.352259 124.28125 57.15625 L 128.46875 53.90625 z "
       id="path3019" />
    <path
       style="fill:url(#linearGradient3241);fill-opacity:1;fill-rule:nonzero;stroke:#000000;stroke-width:0.30000000999999998;stroke-miterlimit:4;stroke-opacity:1;stroke-dasharray:none"
       d="M 126.0625 87.78125 C 125.53727 87.918809 125.02721 88.086439 124.53125 88.3125 C 123.48228 88.783601 122.45812 89.317721 121.40625 89.78125 C 118.61588 91.117141 115.82338 92.41184 113.28125 94.21875 C 112.97325 94.423824 112.67655 94.661407 112.375 94.875 C 112.17592 94.253 111.97089 93.602724 111.8125 92.96875 C 111.47756 91.434265 111.14368 89.90686 110.96875 88.34375 L 106.25 90.8125 C 106.51331 92.375561 106.8568 93.918987 107.1875 95.46875 C 107.34529 96.099209 107.55623 96.723588 107.75 97.34375 C 106.85501 97.713178 105.97118 98.069193 105.0625 98.40625 L 100.875 101.6875 C 102.66219 101.00464 104.44384 100.28805 106.1875 99.5 C 106.84736 99.221025 107.48773 98.914456 108.125 98.59375 C 108.19176 98.813813 108.25005 99.028679 108.3125 99.25 C 108.57294 100.18983 108.6476 101.15467 108.6875 102.125 C 108.714 103.08247 108.72375 104.04226 108.71875 105 C 108.81531 105.82593 108.9361 106.67041 109 107.5 C 109.00142 108.323 109.1029 109.11799 109.125 109.9375 C 109.06215 110.77372 109.13646 111.61075 109.25 112.4375 C 109.35569 113.17414 109.58359 113.88623 109.6875 114.625 C 109.70306 114.99456 109.7949 115.32859 109.875 115.6875 L 114.5625 113.1875 C 114.48749 112.83845 114.4034 112.48188 114.375 112.125 C 114.2565 111.39292 114.06225 110.67319 113.96875 109.9375 C 113.85876 109.12689 113.82045 108.34929 113.84375 107.53125 C 113.79554 106.70491 113.75675 105.8585 113.71875 105.03125 C 113.65061 104.21667 113.4972 103.40879 113.4375 102.59375 C 113.4373 101.62778 113.44085 100.6843 113.40625 99.71875 C 113.34987 98.712293 113.22259 97.689618 112.9375 96.71875 C 112.86696 96.474161 112.79476 96.242933 112.71875 96 C 113.32024 95.641118 113.92646 95.29189 114.53125 94.9375 C 115.23072 94.379124 115.95753 93.8595 116.6875 93.34375 C 116.88617 93.25308 117.08382 93.155172 117.28125 93.0625 C 118.33394 92.602903 119.36334 92.07425 120.40625 91.59375 C 120.88526 91.364008 121.37026 91.192866 121.875 91.03125 L 126.0625 87.78125 z "
       id="path3023" />
    <path
       style="fill:url(#linearGradient3249);fill-opacity:1;fill-rule:nonzero;stroke:#000000;stroke-width:0.30000000999999998;stroke-miterlimit:4;stroke-opacity:1;stroke-dasharray:none"
       d="m 152.40625,87.28125 -4.71875,2.4375 c 0.0315,0.8227 0.0827,1.647223 0,2.46875 -0.20921,1.365028 -0.59374,2.695687 -0.9375,4.03125 -0.44659,1.584292 -0.73142,3.191614 -1.15625,4.78125 -0.49321,1.46814 -1.20657,2.79464 -2.34375,3.875 -0.66351,0.63219 -1.33684,1.04624 -2.31504,1.33867 -0.48334,0.0936 -1.61912,0.46858 -2.10009,0.47248 -1.3282,-0.20277 -1.15975,-0.41082 -1.80362,-1.65498 -0.83529,-1.74525 -1.0605,-3.63644 -1.0625,-5.5625 -0.01,-1.976847 0.11613,-3.963653 0.5,-5.90625 0.36846,-1.731936 0.74392,-3.473113 1.1875,-5.1875 l -4.78125,2.3125 c -0.36397,1.718872 -0.77328,3.434934 -1.125,5.15625 -0.35467,1.978322 -0.4837,3.992553 -0.4375,6 0.0234,2.05018 0.2922,3.91646 1.15625,5.78125 0.72246,1.38218 1.44308,1.87895 2.9375,2.21875 1.13866,0.12185 2.35596,0.005 3.375,-0.5625 1.7476,-0.97393 3.45198,-2.00471 5.1875,-3 1.51817,-0.95418 2.84327,-2.16486 4.125,-3.40625 1.18754,-1.25291 1.76496,-2.49868 2.25,-4.125 0.36346,-1.606647 0.66543,-3.198328 1.125,-4.78125 0.31837,-1.369414 0.77655,-2.725017 0.9375,-4.125 0.0598,-0.853036 0.0289,-1.709348 0,-2.5625 z"
       id="path3027"
       inkscape:connector-curvature="0"
       sodipodi:nodetypes="cccccccccccccccccsccccccc" />
    <path
       style="fill:url(#linearGradient3257);fill-opacity:1;fill-rule:nonzero;stroke:#000000;stroke-width:0.30000000999999998;stroke-miterlimit:4;stroke-opacity:1;stroke-dasharray:none"
       id="path3029"
       d="m 165.21814,86.943543 c -0.0428,1.791854 -0.0346,3.58444 -0.03,5.376653 3.2e-4,1.605041 0.006,3.210093 0.0152,4.81511 0.003,1.128582 0.006,2.257158 0.0118,3.385734 0.004,0.78847 0.006,1.57694 0.007,2.36542 4.2e-4,0.47587 4.4e-4,0.95173 4.8e-4,1.4276 0,0 -4.73059,2.41035 -4.73059,2.41035 l 0,0 c 3e-5,-0.47602 6e-5,-0.95205 4.8e-4,-1.42808 8.7e-4,-0.7908 0.003,-1.5816 0.007,-2.3724 0.006,-1.13259 0.009,-2.26519 0.0118,-3.397789 0.009,-1.610166 0.0148,-3.220366 0.0152,-4.830555 0.005,-1.782016 0.0131,-3.564423 -0.03,-5.346072 0,0 4.72199,-2.405971 4.72199,-2.405971 z"
       inkscape:connector-curvature="0" />
    <path
       style="fill:url(#linearGradient3265);fill-opacity:1;fill-rule:nonzero;stroke:#000000;stroke-width:0.30000000999999998;stroke-miterlimit:4;stroke-opacity:1;stroke-dasharray:none"
       id="path3031"
       d="m 163.43498,61.542373 c -0.0367,1.438007 -0.0256,2.876693 -0.0156,4.31497 0.006,0.740021 0.003,0.380211 0.008,1.079429 0,0 -4.71193,2.400848 -4.71193,2.400848 l 0,0 c 0.005,-0.704436 0.002,-0.341915 0.008,-1.087562 0.01,-1.432984 0.0214,-2.866395 -0.0156,-4.299101 0,0 4.72711,-2.408584 4.72711,-2.408584 z"
       inkscape:connector-curvature="0" />
    <path
       style="fill:url(#linearGradient3273);fill-opacity:1;fill-rule:nonzero;stroke:#000000;stroke-width:0.30000000999999998;stroke-miterlimit:4;stroke-opacity:1;stroke-dasharray:none"
       d="M 178.78125 58.71875 L 174.0625 61.125 C 174.15909 62.868279 174.05221 64.605469 173.9375 66.34375 C 173.75112 67.837365 173.57551 69.352264 173.375 70.84375 C 172.3942 70.841113 171.41819 70.826901 170.4375 70.8125 L 166.125 73.90625 C 168.006 73.879289 169.90009 73.90865 171.78125 73.90625 C 172.17769 73.906505 172.57231 73.905909 172.96875 73.90625 C 172.88726 74.572738 172.80828 75.240775 172.71875 75.90625 C 172.4974 77.424112 172.39675 78.936572 172.34375 80.46875 C 172.29896 81.720166 172.38786 82.972876 172.5 84.21875 C 172.61507 85.29574 173.01009 86.314236 173.40625 87.3125 C 173.7763 88.383972 174.25175 89.389844 174.75 90.40625 C 175.3239 91.520311 176.04118 92.571938 176.71875 93.625 C 177.2762 94.502375 177.89894 95.329797 178.4375 96.21875 C 178.91995 97.02661 179.44206 97.825428 179.9375 98.625 C 180.33153 99.288379 180.80878 99.887314 181.3125 100.46875 L 185.84375 97.71875 C 185.35664 97.159827 184.87996 96.576818 184.5 95.9375 C 184.00179 95.141887 183.48384 94.367298 183 93.5625 C 182.45652 92.669672 181.82585 91.840755 181.25 90.96875 C 180.57655 89.937897 179.89779 88.913696 179.34375 87.8125 C 178.84844 86.810588 178.36509 85.776624 178 84.71875 C 177.63146 83.761482 177.2773 82.813294 177.1875 81.78125 C 177.06759 80.561315 176.98465 79.320145 177.03125 78.09375 C 177.09256 76.69147 177.21317 75.297036 177.40625 73.90625 C 177.43755 73.90639 177.4687 73.906106 177.5 73.90625 C 178.39422 73.91135 177.97802 73.90135 178.8125 73.90625 L 183.0625 70.8125 C 182.21463 70.8175 182.65823 70.8075 181.75 70.8125 C 180.42497 70.818519 179.10629 70.842306 177.78125 70.84375 C 177.86772 70.177282 177.93521 69.509133 178.03125 68.84375 C 178.24903 67.232581 178.42305 65.61674 178.59375 64 C 178.70782 62.241206 178.78325 60.481612 178.78125 58.71875 z "
       id="path3033" />
    <path
       style="fill:url(#linearGradient3281);fill-opacity:1;fill-rule:nonzero;stroke:#000000;stroke-width:0.30000000999999998;stroke-miterlimit:4;stroke-opacity:1;stroke-dasharray:none"
       d="m 202.4375,80.5 c -1.44901,0.368727 -2.9054,0.748069 -4.34375,1.15625 -2.77419,0.810999 -5.15057,2.571504 -7.59375,4.03125 -0.78554,0.668273 -1.25957,1.611513 -1.6875,2.53125 -0.39888,0.888541 -0.39827,1.777148 0,2.65625 0.4323,0.922044 1.09839,1.724663 1.78125,2.46875 0.74331,0.834029 1.55405,1.59281 2.40625,2.3125 0.79831,0.699131 1.77196,1.09136 2.75,1.46875 0.88432,0.3299 1.76841,0.648683 2.65625,0.96875 0.72934,0.284378 1.47524,0.40864 2.25,0.3125 2.11908,-0.65392 4.44419,-1.600794 5.59375,-3.53125 -1.02112,1.968844 -6.18738,-1.102446 -3.53188,0.439404 -0.89173,-0.306521 -1.70363,-0.814004 -2.59312,-1.126904 -0.92698,-0.355884 -1.86066,-0.684314 -2.625,-1.34375 -0.83915,-0.701259 -1.68802,-1.420376 -2.40625,-2.25 -0.63639,-0.706004 -1.25782,-1.43884 -1.65625,-2.3125 -0.3119,-0.773462 -0.18776,-1.516642 0.1875,-2.25 0.24035,-0.461821 0.50451,-0.90371 0.8125,-1.3125 1.25706,-0.351022 2.51174,-0.724584 3.78125,-1.03125 z"
       id="path3037"
       inkscape:connector-curvature="0"
       sodipodi:nodetypes="cccccccccccccccccccc" />
    <path
       style="fill:url(#linearGradient3289);fill-opacity:1;fill-rule:nonzero;stroke:#000000;stroke-width:0.30000000999999998;stroke-miterlimit:4;stroke-opacity:1;stroke-dasharray:none"
       d="M 210.21875 79.09375 L 205.5 81.5 C 205.5581 83.329998 205.4762 85.139871 205.5625 86.96875 C 205.58589 88.840394 206.03166 90.645839 206.9375 92.28125 C 207.65193 93.509419 208.66376 94.352028 209.9375 94.9375 C 211.49954 95.556427 213.1872 95.59689 214.84375 95.5625 C 218.40675 95.381882 220.30159 93.665328 223.5625 91.75 C 224.60734 90.822316 225.02422 89.509495 225.3125 88.1875 C 225.53876 86.92535 225.57205 85.653852 225.59375 84.375 C 225.67476 83.500814 225.47996 82.669341 225.21875 81.84375 C 225.03169 81.16878 224.83421 80.529693 224.6875 79.84375 L 220 82.34375 C 220.16376 83.039373 220.37833 83.716193 220.5625 84.40625 C 220.80246 85.180544 220.9334 85.966952 220.875 86.78125 C 220.86052 88.022539 220.82515 89.250569 220.5625 90.46875 C 220.38517 91.140505 220.15032 91.797551 219.8125 92.375 C 219.56271 92.413762 219.31508 92.450289 219.0625 92.46875 C 217.46797 92.527573 215.84053 92.563354 214.3125 92.03125 C 213.06105 91.512099 212.21718 90.836356 211.5 89.65625 C 210.61516 88.094844 210.23605 86.38567 210.21875 84.59375 C 210.14445 82.760613 210.18815 80.92771 210.21875 79.09375 z "
       id="path3039" />
    <path
       style="fill:url(#linearGradient3297);fill-opacity:1;fill-rule:nonzero;stroke:#000000;stroke-width:0.30000000999999998;stroke-miterlimit:4;stroke-opacity:1;stroke-dasharray:none"
       d="M 240.5 49.125 L 235.6875 51.375 C 235.12968 53.483385 234.50642 55.577497 233.84375 57.65625 C 233.53472 58.546665 233.25117 59.444867 232.96875 60.34375 C 229.51186 60.249965 226.08342 60.114061 222.625 60.09375 L 218.34375 63.21875 C 221.9472 63.131241 225.52185 63.22407 229.125 63.28125 C 230.11404 63.294633 231.10469 63.298096 232.09375 63.3125 C 231.94791 63.83435 231.79349 64.350726 231.65625 64.875 C 231.0748 66.985979 230.86136 69.159906 230.5 71.3125 C 230.20333 73.315667 229.66393 75.27721 229.375 77.28125 C 229.11529 78.971967 229.25585 80.672269 229.5625 82.34375 C 229.83652 83.731527 230.49236 84.976713 231.25 86.15625 C 231.93042 87.127468 232.65668 88.057051 233.375 89 C 233.94756 89.747903 234.40459 90.577421 234.78125 91.4375 C 234.95919 91.802482 235.10281 92.166499 235.28125 92.53125 L 239.90625 89.90625 C 239.73207 89.546353 239.5496 89.203444 239.375 88.84375 C 238.97056 87.951429 238.50769 87.089734 237.90625 86.3125 C 237.19505 85.380603 236.46426 84.45308 235.78125 83.5 C 235.05135 82.385692 234.46523 81.197177 234.21875 79.875 C 233.93737 78.253425 233.79029 76.603851 234.0625 74.96875 C 234.37605 72.978284 234.90821 71.028171 235.1875 69.03125 C 235.49448 67.141122 235.71039 65.238585 236.15625 63.375 C 239.81087 63.422599 243.47019 63.436067 247.125 63.40625 C 251.16001 63.307219 255.21557 63.37467 259.25 63.46875 C 259.58701 63.46695 259.913 63.47065 260.25 63.46875 L 264.46875 60.375 L 263.4375 60.4375 C 259.34664 60.41623 255.246 60.375623 251.15625 60.5 C 246.43083 60.567444 241.69405 60.486855 236.96875 60.40625 C 237.44194 58.741911 237.9602 57.10346 238.53125 55.46875 C 239.19726 53.360751 239.83569 51.233635 240.5 49.125 z "
       id="path3041" />
  </g>
</svg>
